<svg xmlns="http://www.w3.org/2000/svg" width="55.725" height="55.725" viewBox="0 0 55.725 55.725"><defs><style>.a{fill:#f1f1f1;fill-rule:evenodd;}</style></defs><path class="a" d="M586.14,1041.213A27.863,27.863,0,1,0,614,1069.076,27.863,27.863,0,0,0,586.14,1041.213Zm11.434,36.827c-.628.076-2.445-2.875-2.445-2.875a7.629,7.629,0,0,1-2.783,5.548c.918.283,2.99,1.045,2.5,1.876-.4.673-6.842.43-8.7.22-1.86.21-8.3.453-8.7-.22-.493-.831,1.576-1.593,2.5-1.876a7.628,7.628,0,0,1-2.783-5.549s-1.817,2.951-2.445,2.875c-.293-.036-.677-1.616.51-5.435.559-1.8,1.2-3.3,2.188-5.766-.166-6.372,2.466-11.718,8.736-11.718,6.2,0,8.894,5.24,8.736,11.718.988,2.465,1.631,3.971,2.189,5.766C598.251,1076.424,597.866,1078,597.573,1078.04Z" transform="translate(-558.277 -1041.213)"/></svg>