<svg xmlns="http://www.w3.org/2000/svg" width="55.725" height="55.725" viewBox="0 0 55.725 55.725"><defs><style>.a{fill:#f1f1f1;fill-rule:evenodd;}</style></defs><path class="a" d="M376.013,1100.573c-3.368-.212-6.742-.341-9.887-.494-3.183.175-6.129.321-9.072.506a3.54,3.54,0,0,0-3.2,3.152,69,69,0,0,0,0,13.745,3.521,3.521,0,0,0,3.182,3.172c2.516.173,5.037.326,7.558.387a106.256,106.256,0,0,0,11.546-.361,3.594,3.594,0,0,0,3.343-3.179,61.146,61.146,0,0,0,.05-13.448A3.515,3.515,0,0,0,376.013,1100.573Zm1.352,15.988c-.067,1.244-.632,1.748-1.982,1.818-2.9.148-5.8.27-8.852.409-2.9-.146-5.942-.283-8.985-.464a1.5,1.5,0,0,1-1.544-1.536,64.646,64.646,0,0,1-.222-9.481c.051-1.064.135-2.127.236-3.188a1.5,1.5,0,0,1,1.5-1.466c3.767-.136,7.534-.314,11.3-.344,2.29-.018,4.583.2,6.874.33a1.579,1.579,0,0,1,1.658,1.6c.135,1.683.313,3.37.3,5.055C377.641,1111.716,377.495,1114.14,377.365,1116.561Z" transform="translate(-338.801 -1080.727)"/><path class="a" d="M381.9,1109.593c-.146-.02-.293-.041-.44-.048q-4.272-.2-8.552-.388c-2.862.131-5.727.253-8.59.4-1,.051-1.165.24-1.241,1.139a69.506,69.506,0,0,0,0,11.783c.075.88.259,1.082,1.147,1.128,2.062.107,4.123.24,6.186.292a109.188,109.188,0,0,0,11.4-.3c.653-.052.885-.281.948-.9a59.359,59.359,0,0,0,0-12.219C382.687,1109.878,382.489,1109.672,381.9,1109.593Zm-17.342,6.321c-.234-.589-.115-1.086.41-1.283,1.514-.568,3.037-1.113,4.574-1.615.6-.2,1.121.327,1.116,1.019a.8.8,0,0,1-.567.825c-1.461.524-2.919,1.054-4.383,1.57A.839.839,0,0,1,364.554,1115.913Zm11.349,3.763a1.831,1.831,0,0,1-2.466.017c-.177-.146-.344-.3-.542-.479a6.6,6.6,0,0,1-.627.57,1.77,1.77,0,0,1-2.59-.421,4.629,4.629,0,0,1-.567-1.39.654.654,0,0,1,.311-.542c.255-.121.436.068.533.347a4.039,4.039,0,0,0,.436.976.906.906,0,0,0,1.506.088c.224-.251.344-.59.546-.864.113-.153.3-.348.45-.35s.349.183.467.333c.16.2.241.465.4.673a1.012,1.012,0,0,0,1.869-.136,5.984,5.984,0,0,1,.293-.72,1.9,1.9,0,0,1,.541-.366c.1.179.3.368.281.536A2.658,2.658,0,0,1,375.9,1119.677Zm4.149-3.271q-2.076-.744-4.148-1.5a.9.9,0,0,1-.643-1.225.873.873,0,0,1,1.223-.623c1.44.48,2.87.99,4.3,1.5a.787.787,0,0,1,.618.8C381.386,1116.274,380.816,1116.68,380.051,1116.406Z" transform="translate(-345.053 -1086.82)"/><path class="a" d="M336.636,1041.213a27.863,27.863,0,1,0,27.863,27.863A27.863,27.863,0,0,0,336.636,1041.213ZM351,1077.5a5.121,5.121,0,0,1-3.218,4.759,7.843,7.843,0,0,1-2.3.437,113.3,113.3,0,0,1-16.756.052c-.752-.054-1.508-.087-2.25-.209a5.03,5.03,0,0,1-4.125-4.572,75.807,75.807,0,0,1-.254-9.091c.06-1.538.144-3.079.3-4.61a4.986,4.986,0,0,1,4.966-4.653c1.17-.075,2.34-.156,3.586-.239-.445-.609-.848-1.158-1.249-1.708a1.4,1.4,0,0,1-.13-1.727,1.614,1.614,0,0,1,1.775-.758,1.548,1.548,0,0,1,.775.543c.753,1.052,1.471,2.13,2.173,3.217a.677.677,0,0,0,.673.357c1.131-.025,2.263-.039,3.394-.019a.579.579,0,0,0,.578-.322c.7-1.072,1.4-2.138,2.14-3.181a1.555,1.555,0,0,1,2.513,1.829c-.405.569-.825,1.129-1.27,1.736,1.523.12,2.965.189,4.395.358a4.983,4.983,0,0,1,4.186,4.347A68.036,68.036,0,0,1,351,1077.5Z" transform="translate(-308.773 -1041.213)"/></svg>