<svg xmlns="http://www.w3.org/2000/svg" width="55.725" height="55.725" viewBox="0 0 55.725 55.725"><defs><style>.a{fill:#f1f1f1;fill-rule:evenodd;}</style></defs><g transform="translate(0)"><path class="a" d="M1368.267,1125.079a12.885,12.885,0,0,0-5.691-1.259,15.617,15.617,0,0,0-5.706.974,9.338,9.338,0,0,0-3.9,2.645,4.639,4.639,0,0,0,.143,6.4,8.165,8.165,0,0,0,3.848,2.268,13.409,13.409,0,0,0,9.906-.832,8.349,8.349,0,0,0,3.818-3.467,4.38,4.38,0,0,0,.093-4.466A5.706,5.706,0,0,0,1368.267,1125.079Zm-4.183,8.95a6.322,6.322,0,0,1-6.558.553,2.9,2.9,0,0,1-1.771-1.889,4.258,4.258,0,0,1-.131-1.188,5.223,5.223,0,0,1,1.465-3.842,4.918,4.918,0,0,1,2.334-1.257,6.626,6.626,0,0,1,3.624,0,4.158,4.158,0,0,1,2.914,3.8A4.088,4.088,0,0,1,1364.084,1134.029Z" transform="translate(-1336.979 -1096.663)"/><path class="a" d="M1371.322,1143.4a2,2,0,0,0-2.69.99,1.38,1.38,0,0,0-.078,1.085,1.617,1.617,0,0,0,1.712.9,2.141,2.141,0,0,0,1.505-.793A1.36,1.36,0,0,0,1371.322,1143.4Z" transform="translate(-1348.196 -1109.676)"/><path class="a" d="M1381.463,1140.589a.847.847,0,0,0-.826.832.578.578,0,0,0,.568.631.892.892,0,0,0,.827-.873A.545.545,0,0,0,1381.463,1140.589Z" transform="translate(-1356.359 -1107.918)"/><path class="a" d="M1334.652,1041.213a27.863,27.863,0,1,0,27.863,27.863A27.863,27.863,0,0,0,1334.652,1041.213Zm11.769,34.034a8.631,8.631,0,0,1-3.517,4.629,17.605,17.605,0,0,1-7.109,2.823,19.412,19.412,0,0,1-3.52.331,22.715,22.715,0,0,1-8.718-1.78,8.885,8.885,0,0,1-3.848-3.091,7.015,7.015,0,0,1-.756-6.76,15.1,15.1,0,0,1,2.526-4.194,24.615,24.615,0,0,1,4.943-4.688,10.778,10.778,0,0,1,4.9-1.993,3.809,3.809,0,0,1,1.244.045,2.26,2.26,0,0,1,1.816,1.768,3.465,3.465,0,0,1,.04,1.889,4.1,4.1,0,0,0-.117.653c-.04.34.088.482.424.484a2.454,2.454,0,0,0,.953-.215,11.026,11.026,0,0,1,3.852-.948,3.251,3.251,0,0,1,2.261.612,2.609,2.609,0,0,1,.765,2.945,3.458,3.458,0,0,1-.376.847c-.2.308-.133.516.186.7a2.16,2.16,0,0,0,.578.191,5.217,5.217,0,0,1,2.867,1.817A4.108,4.108,0,0,1,1346.421,1075.247Zm-2.243-11.312a3.146,3.146,0,0,0-2.894-2.206,1.143,1.143,0,0,1-1.218-.987,1.089,1.089,0,0,1,1.064-1.256,5.4,5.4,0,0,1,5.449,5.4,4.651,4.651,0,0,1-.085.811,1.113,1.113,0,0,1-2.19-.284A4.532,4.532,0,0,0,1344.178,1063.935Zm6.709,2.047c-.106.135-.075.3-.094.452a1.354,1.354,0,0,1-1.394,1.22,1.32,1.32,0,0,1-1.284-1.379c.009-.353.069-.7.09-1.058a7.042,7.042,0,0,0-4.329-6.846,7.135,7.135,0,0,0-2.612-.536,1.347,1.347,0,0,1-1.412-1.109,1.327,1.327,0,0,1,.928-1.53c.04-.016.089-.02.1-.076h1.012c.015.057.063.049.106.052a7.39,7.39,0,0,1,1.466.235,9.651,9.651,0,0,1,7.181,7.137c.106.379.112.777.247,1.148Z" transform="translate(-1306.789 -1041.213)"/></g></svg>