<svg xmlns="http://www.w3.org/2000/svg" width="22.089" height="25.179" viewBox="0 0 22.089 25.179"><path d="M1029.132,398.69c-.591.068-2.3-2.594-2.3-2.594a6.78,6.78,0,0,1-2.619,5.006c.864.255,2.813.943,2.35,1.693-.375.607-6.439.388-8.19.2-1.75.189-7.814.408-8.189-.2-.464-.75,1.484-1.437,2.349-1.692a6.78,6.78,0,0,1-2.619-5.006s-1.71,2.662-2.3,2.594c-.275-.032-.638-1.458.48-4.9.526-1.624,1.128-2.974,2.059-5.2-.157-5.749,2.321-10.571,8.222-10.571,5.835,0,8.37,4.728,8.222,10.572.93,2.224,1.535,3.582,2.06,5.2C1029.769,397.232,1029.407,398.658,1029.132,398.69Z" transform="translate(-1007.327 -378.013)"/></svg>