<svg xmlns="http://www.w3.org/2000/svg" width="30.649" height="23.82" viewBox="0 0 30.649 23.82"><path d="M1330.455,383.677a13,13,0,0,1-3.611.947,6.085,6.085,0,0,0,2.765-3.326,12.912,12.912,0,0,1-3.994,1.459,6.415,6.415,0,0,0-4.589-1.9,6.154,6.154,0,0,0-6.286,6.013,5.826,5.826,0,0,0,.162,1.37,18.135,18.135,0,0,1-12.959-6.282,5.786,5.786,0,0,0-.851,3.023,5.945,5.945,0,0,0,2.8,5,6.479,6.479,0,0,1-2.848-.752v.076a6.09,6.09,0,0,0,5.044,5.9,6.516,6.516,0,0,1-1.657.211,6.655,6.655,0,0,1-1.183-.106,6.266,6.266,0,0,0,5.873,4.175,13.136,13.136,0,0,1-9.309,2.489,18.387,18.387,0,0,0,9.638,2.7,17.365,17.365,0,0,0,17.889-17.107q0-.391-.019-.778a12.52,12.52,0,0,0,3.141-3.117Z" transform="translate(-1299.806 -380.859)"/></svg>