<svg xmlns="http://www.w3.org/2000/svg" width="31.692" height="29.168" viewBox="0 0 31.692 29.168"><path d="M696.617,374.073c1.652.126,3.214.2,4.764.374a5.3,5.3,0,0,1,4.537,4.543,68.53,68.53,0,0,1,.1,14.06,5.357,5.357,0,0,1-3.489,4.973,8.776,8.776,0,0,1-2.494.457,127.367,127.367,0,0,1-18.164.054c-.815-.057-1.635-.091-2.439-.218a5.332,5.332,0,0,1-4.471-4.778,76.376,76.376,0,0,1-.276-9.5c.065-1.608.156-3.218.329-4.818.309-2.858,2.358-4.674,5.383-4.862,1.269-.079,2.537-.163,3.888-.25l-1.354-1.785a1.426,1.426,0,0,1-.14-1.8,1.777,1.777,0,0,1,1.924-.793,1.682,1.682,0,0,1,.84.568c.816,1.1,1.6,2.226,2.356,3.362a.741.741,0,0,0,.729.373c1.226-.027,2.453-.04,3.679-.02a.632.632,0,0,0,.627-.336c.755-1.12,1.52-2.235,2.319-3.325a1.62,1.62,0,0,1,2.333-.334,1.488,1.488,0,0,1,.391,2.246C697.555,372.854,697.1,373.438,696.617,374.073Zm-6.747,1.282c-3.45.183-6.644.335-9.835.528a3.774,3.774,0,0,0-3.472,3.294,69.509,69.509,0,0,0,0,14.365,3.75,3.75,0,0,0,3.449,3.315c2.728.181,5.46.34,8.193.4a119.457,119.457,0,0,0,12.517-.377,3.838,3.838,0,0,0,3.624-3.323,61.617,61.617,0,0,0,.055-14.054,3.746,3.746,0,0,0-3.812-3.636C696.936,375.65,693.279,375.515,689.87,375.355Z" transform="translate(-674.642 -369.665)"/><path d="M702.821,422.362c-3.14-.159-6.441-.307-9.74-.5a1.623,1.623,0,0,1-1.674-1.665,70.05,70.05,0,0,1-.241-10.278c.055-1.153.146-2.306.255-3.455a1.63,1.63,0,0,1,1.629-1.589c4.084-.147,8.168-.341,12.253-.373,2.483-.019,4.969.213,7.452.358a1.712,1.712,0,0,1,1.8,1.731c.146,1.824.339,3.654.328,5.48-.016,2.628-.175,5.255-.316,7.88-.072,1.348-.685,1.895-2.148,1.97C709.275,422.079,706.133,422.211,702.821,422.362Zm.13-17.046c-3.1.142-6.208.274-9.312.431-1.082.055-1.263.26-1.346,1.234a75.315,75.315,0,0,0,0,12.774c.081.954.281,1.173,1.243,1.222,2.235.115,4.47.26,6.707.317a118.22,118.22,0,0,0,12.355-.329c.708-.056.96-.3,1.028-.979a64.336,64.336,0,0,0,0-13.246c-.068-.643-.282-.866-.926-.952-.159-.021-.317-.045-.477-.052Q707.591,405.524,702.951,405.316Z" transform="translate(-687.154 -397.266)"/><path d="M709.1,426.393a.864.864,0,0,1-.615.894c-1.584.568-3.165,1.143-4.752,1.7a.91.91,0,0,1-1.246-.559c-.254-.638-.125-1.177.444-1.391,1.641-.616,3.293-1.207,4.958-1.751C708.54,425.076,709.1,425.643,709.1,426.393Z" transform="translate(-695.742 -412.514)"/><path d="M757.922,427.886c-.017,1-.635,1.438-1.465,1.141q-2.25-.806-4.5-1.622a.973.973,0,0,1-.7-1.328.946.946,0,0,1,1.326-.675c1.561.52,3.111,1.074,4.662,1.623A.853.853,0,0,1,757.922,427.886Z" transform="translate(-732.911 -412.578)"/><path d="M727.645,447.283a7.127,7.127,0,0,1-.68.618,1.919,1.919,0,0,1-2.808-.456,5.027,5.027,0,0,1-.615-1.507.71.71,0,0,1,.338-.588c.276-.131.473.074.577.376a4.385,4.385,0,0,0,.473,1.058.983.983,0,0,0,1.633.1c.242-.272.373-.64.592-.936.122-.166.321-.377.488-.38s.379.2.507.36c.173.219.261.5.429.73a1.1,1.1,0,0,0,2.026-.148,6.519,6.519,0,0,1,.317-.781,2.055,2.055,0,0,1,.587-.4c.108.194.322.4.3.581a2.882,2.882,0,0,1-.908,1.874,1.985,1.985,0,0,1-2.673.019C728.042,447.644,727.86,447.474,727.645,447.283Z" transform="translate(-711.858 -427.963)"/></svg>