<svg xmlns="http://www.w3.org/2000/svg" width="26.195" height="30" viewBox="0 0 26.195 30"><defs><style>.a{fill-rule:evenodd;}</style></defs><path class="a" d="M390.459,381.483a9.42,9.42,0,0,0-7-6.035c-1.317-.318-1.466-.433-1.8-1.5a1.966,1.966,0,0,1,.09-1.935c.569-.982,1.227-1.068,2.693-.346a5.578,5.578,0,0,0,1.586.606c.569,0,1.376-.953,1.376-1.617s-1.257-1.877-2.484-2.368a5.161,5.161,0,0,0-5.895,1.559c-.6.751-.658,1.068-.509,3.321l.12,2.483-1.077.462a7.077,7.077,0,0,0-4.608,6.814c0,4.533,3.142,7.392,7,6.381a5.916,5.916,0,0,0,4.159-5.37,19.994,19.994,0,0,0-.6-2.83,7.641,7.641,0,0,1-.449-2.454c.449-.4,3.022,1.386,3.86,2.685.778,1.184.9,1.732,1.017,3.956.12,2.455.09,2.685-.808,4.447-1.676,3.263-4.548,4.909-8.558,4.909A8.783,8.783,0,0,1,372,392.167a10.6,10.6,0,0,1-3.77-8.229c0-3.985,1.586-6.815,5.236-9.327,2.573-1.761,3.052-2.512,2.094-3.523a1.906,1.906,0,0,0-1.167-.549c-1.586,0-5.895,3.551-7.48,6.179-4.817,7.94-.209,18.942,8.8,20.963a16.432,16.432,0,0,0,7.51-.462,12.607,12.607,0,0,0,7.391-6.9A15.845,15.845,0,0,0,390.459,381.483Zm-12.926,4.649a4.051,4.051,0,0,1-1.5-3,5.04,5.04,0,0,1,1.915-3.667c1.556-.924,1.765-.779,2.364,1.675a22.906,22.906,0,0,1,.509,3.032A2.407,2.407,0,0,1,377.533,386.132Z" transform="translate(-364.971 -367.922)"/></svg>