<svg xmlns="http://www.w3.org/2000/svg" width="321.933" height="211.646" viewBox="0 0 321.933 211.646"><defs><style>.a{fill:#414042;}</style></defs><path class="a" d="M160.669,361.934c-16.413,42.687-32.761,85.2-49.167,127.872l-1.6-1.888c-1.043.688-2.1,1.326-3.065,2.076-.2.153-.193.774-.074,1.1.448,1.243.969,2.46,1.482,3.676.254.592.033.889-.494,1.137A29.246,29.246,0,0,1,96.7,498.876c-2.367.114-4.746.022-7.3.022.2-2.114.374-3.9.555-5.791-1.2-.312-2.38-.652-3.574-.9-.191-.04-.568.3-.689.542-.7,1.431-1.352,2.886-2.069,4.44a31.523,31.523,0,0,1-13.846-9.811c1.13-.995,2.189-1.989,3.311-2.9.639-.521.852-.973.175-1.585a.539.539,0,0,1-.058-.088c-.565-.781-.988-1.976-1.736-2.218-.667-.219-1.675.6-2.527.972-.756.332-1.506.68-2.357,1.066a32.047,32.047,0,0,1-3.723-18.815H66.1c.415,0,.832,0,1.245.041.7.06,1.077-.128,1.137-.948a12.963,12.963,0,0,1,.532-2.321c.165-.623.089-1.025-.6-1.288-1.387-.532-2.739-1.161-4.207-1.779a32,32,0,0,1,11.428-15.767c.972,1.2,1.917,2.311,2.8,3.482.412.544.748.715,1.366.3a19.453,19.453,0,0,1,2.344-1.326c.6-.293.687-.647.473-1.253-.506-1.439-.947-2.9-1.428-4.392a30.311,30.311,0,0,1,9.147-2.606,30.721,30.721,0,0,1,9.636.332c.809.151.931.458.723,1.2-.329,1.174-.509,2.386-.807,3.568-.153.615.033.922.628,1.049.3.065.59.176.883.27,2.416.779,2.421.783,3.653-1.524.44-.829.852-1.668,1.318-2.583a31.877,31.877,0,0,1,9.193,5.9c.687-1.618,1.367-3.122,1.977-4.659q5.5-14.026,10.977-28.065c1.153-2.969,1.01-3.22-2.117-3.221H93.6A58.752,58.752,0,0,0,74.888,411.2,57.314,57.314,0,0,0,42.03,438.283a55.907,55.907,0,0,0-7.007,22.151c-1.7,17.242,3.149,32.394,14.591,45.294A55.872,55.872,0,0,0,80.838,523.72c3.459.716,6.918,1.406,10.41,1.958a37.928,37.928,0,0,0,5.707.38q12.288.061,24.576.018c2.8,0,3.13-.322,4.149-2.984q5.559-14.45,11.17-28.884,4.629-11.947,9.275-23.89,4.228-10.871,8.468-21.735T163,426.829q4.724-12.19,9.468-24.371c1.84-4.745,3.649-9.5,5.492-14.241,1.538-3.961,3.121-7.9,4.658-11.867,1.7-4.385,3.42-8.765,5.027-13.185a1.752,1.752,0,0,1,1.977-1.326q13.434.041,26.867.02H324.16a70.784,70.784,0,0,1,8.007.151c7.383.847,11.916,5.624,12.364,13.159.288,4.874.193,9.782.206,14.661.013,5.516-.068,11.033-.068,16.551q-.013,74.859,0,149.719c0,2.371.2,4.722-.483,7.063-1.879,6.466-6.167,9.725-12.863,9.7-10.2-.03-20.394-.07-30.592-.061-7.393,0-14.787.07-22.179.131-8.386.068-16.773.2-25.159.235q-32.072.114-64.146.166c-.8,0-1.6,0-2.392.032-.957.041-1.043-.4-.738-1.172q1.677-4.226,3.326-8.455c1.153-2.954,2.263-5.922,3.423-8.873,1.127-2.893,2.3-5.723,3.423-8.566.824-2.071,1.6-4.158,2.4-6.235,1.219-3.15,2.451-6.283,3.667-9.43,1.812-4.679,3.6-9.365,5.409-14.042,1.069-2.76,2.2-5.494,3.255-8.258.809-2.112,1.517-4.262,2.326-6.375,2.209-5.763,4.447-11.511,6.671-17.269q4.279-11.075,8.531-22.154,3.891-10.1,7.794-20.2Q242.178,427.2,248,412.072c.287-.749.626-1.481.855-2.246.306-1.023-.165-1.625-1.221-1.668-.484-.018-.972.015-1.458.015l-59.567-.018c-1.708,0-1.8.058-2.43,1.678q-4.535,11.652-9.06,23.3c-.6,1.549-.425,1.834,1.257,1.824q14.785-.043,29.574-.1c1.458,0,2.916-.023,4.373,0,1.558.017,2.128.788,1.581,2.225-1.647,4.332-3.342,8.651-5.014,12.976q-3.261,8.439-6.518,16.879-3.166,8.2-6.33,16.395-3.756,9.705-7.521,19.409c-2.879,7.409-5.792,14.807-8.653,22.216-2.548,6.6-5.026,13.233-7.577,19.835-3.538,9.175-7.126,18.33-10.651,27.509A1.455,1.455,0,0,1,158,573.336q-14.474-.023-28.949,0-39.312.018-78.623.033c-4.612,0-9.224-.071-13.85-.131A13.349,13.349,0,0,1,23.233,560.6c-.054-.731-.077-1.466-.084-2.2-.11-14.21-.273-28.421-.308-42.633-.054-21.793-.021-43.588-.023-65.382V391.919q0-8.382.01-16.765a13.159,13.159,0,0,1,13.507-13.429q6.869.09,13.741.1h90.5c6.317,0,12.634.03,18.943.048C159.842,361.869,160.148,361.9,160.669,361.934ZM240.164,469.5c-.219.5-.353.776-.463,1.061q-5.569,14.21-11.133,28.423-4.859,12.411-9.718,24.827c-.568,1.457,0,2.294,1.54,2.358.381.015.763,0,1.153,0q22.278-.166,44.556-.34c4.5-.033,9.007.166,13.494-.464a64.786,64.786,0,0,0,15.813-4.156,55.259,55.259,0,0,0,13.382-7.737,57.127,57.127,0,0,0,20.959-32.893,56.073,56.073,0,0,0,.527-24.379c-4.515-21.183-16.811-35.8-36.9-43.685a60.742,60.742,0,0,0-13.611-3.215,116.46,116.46,0,0,0-14.08-.882,2.04,2.04,0,0,0-2.192,1.379q-6.572,16.851-13.177,33.683c-.1.254-.155.526-.295,1.006l2.393-2,3.658,4.354c.969-.64,1.846-1.245,2.754-1.805a.944.944,0,0,0,.38-1.406c-.494-1.039-.911-2.11-1.377-3.16-.392-.889-.212-1.394.753-1.824a33.021,33.021,0,0,1,13.079-2.938c1.6-.03,3.205.222,4.879.351-.194,2.023-.367,3.813-.542,5.619a24.2,24.2,0,0,1,2.789.729c.98.381,1.385,0,1.739-.867.545-1.338,1.2-2.631,1.79-3.919,4.869,1.457,12.127,6.693,13.731,9.894-1.023.9-2.038,1.854-3.115,2.729-.642.521-.929.928-.25,1.666a10.543,10.543,0,0,1,1.27,1.908c.288.5.57.559,1.09.3,1.394-.681,2.82-1.295,4.327-1.976a31.981,31.981,0,0,1,3.713,18.774c-1.435,0-2.813.038-4.187-.015-.881-.031-1.456.081-1.464,1.185a6.785,6.785,0,0,1-.474,2.019.961.961,0,0,0,.68,1.422c1.377.517,2.711,1.147,4.1,1.746a32.03,32.03,0,0,1-11.44,15.75c-.988-1.228-1.95-2.376-2.859-3.559-.366-.476-.679-.6-1.212-.252a21.941,21.941,0,0,1-2.347,1.326c-.677.332-.768.724-.516,1.414.509,1.4.924,2.83,1.4,4.311a31.192,31.192,0,0,1-19.107,2.187c-.585-.116-.568-.466-.455-.938.3-1.253.537-2.522.853-3.77.156-.623-.056-.9-.634-1.049a17.07,17.07,0,0,1-2.449-.766c-.659-.285-.914-.07-1.2.5-.715,1.381-1.482,2.732-2.253,4.133A31.654,31.654,0,0,1,245.9,485.389c.959-.763,1.865-1.464,2.748-2.192,1.581-1.306,1.575-1.315.613-3.1-.165-.305-.349-.6-.494-.917-.259-.585-.591-.734-1.227-.471-1.058.434-2.176.718-3.242,1.136-.914.358-1.5.254-1.79-.806-.354-1.275-.881-2.5-1.191-3.787C240.885,473.424,240.575,471.574,240.164,469.5Zm-57.625-23.489v-.036H172.021c-1.9,0-1.891,0-2.594,1.805q-8.121,20.914-16.248,41.827-1.627,4.193-3.248,8.389c-.474,1.237-.384,1.354.964,1.356.73,0,1.458-.031,2.187-.031q9.883.01,19.784.031a1.766,1.766,0,0,0,1.916-1.232c1.166-3.06,2.413-6.089,3.611-9.14q3.667-9.342,7.317-18.694,4.489-11.44,8.992-22.879c.445-1.132.278-1.381-.919-1.384-3.742-.017-7.5-.012-11.244-.012Zm-30.824,80.179v-.058c3.645,0,7.289-.013,10.932,0a1.816,1.816,0,0,0,1.922-1.371q2.864-7.585,5.851-15.118c.8-2.026.741-2.193-1.408-2.2-6.907-.017-13.813,0-20.72-.018a2.3,2.3,0,0,0-2.411,1.7c-1.977,5.178-4.026,10.334-6.039,15.5-.507,1.3-.329,1.555,1.044,1.557Z" transform="translate(-22.809 -361.724)"/></svg>