<svg xmlns="http://www.w3.org/2000/svg" width="55.725" height="55.725" viewBox="0 0 55.725 55.725"><defs><style>.a{fill:#9f9f9f;fill-rule:evenodd;}</style></defs><g transform="translate(0)"><path class="a" d="M1085.148,1041.213a27.863,27.863,0,1,0,27.863,27.863A27.863,27.863,0,0,0,1085.148,1041.213Zm14.834,31.3a14.869,14.869,0,0,1-.429,3.668,3.548,3.548,0,0,1-2.727,2.738,19.147,19.147,0,0,1-3.817.41q-2.94.127-5.883.178-4.786.085-9.567-.183a32.938,32.938,0,0,1-3.614-.369,3.567,3.567,0,0,1-3.046-2.857,22.238,22.238,0,0,1-.493-4.107c-.034-.576-.063-1.152-.095-1.729v-2.317a2.257,2.257,0,0,0,.033-.227c.038-.779.061-1.558.113-2.336a17.457,17.457,0,0,1,.466-3.412,3.61,3.61,0,0,1,2.743-2.732,19.5,19.5,0,0,1,3.841-.408c1.744-.08,3.49-.112,5.235-.166.091,0,.182-.021.273-.033h4.4a1.99,1.99,0,0,0,.226.032c1.367.038,2.735.042,4.1.119,1.518.086,3.037.192,4.545.376a3.605,3.605,0,0,1,3.211,2.653,11.1,11.1,0,0,1,.471,3.2C1100,1067.505,1099.975,1070.007,1099.982,1072.508Z" transform="translate(-1057.285 -1041.213)"/><path class="a" d="M1133.292,1121.308l7.768-4.474-7.768-4.474Z" transform="translate(-1108.304 -1088.97)"/></g></svg>