<svg xmlns="http://www.w3.org/2000/svg" width="55.725" height="55.725" viewBox="0 0 55.725 55.725"><defs><style>.a,.b{fill:#f1f1f1;}.b{fill-rule:evenodd;}</style></defs><circle class="a" cx="1.419" cy="1.419" r="1.419" transform="translate(26.207 20.719)"/><path class="b" d="M1611.529,1104.236a1.419,1.419,0,1,0,1.419,1.419A1.526,1.526,0,0,0,1611.529,1104.236Z" transform="translate(-1592.418 -1083.517)"/><circle class="a" cx="1.183" cy="1.183" r="1.183" transform="translate(28.809 29.234)"/><path class="b" d="M1584.157,1041.213a27.863,27.863,0,1,0,27.863,27.863A27.863,27.863,0,0,0,1584.157,1041.213Zm-4.731,34.2c-.946,0-1.656-.236-2.6-.236a1.821,1.821,0,0,0-1.419.236l-3.075,1.892s.71-2.839.71-3.312c0-.236-.473-.709-.473-.709a9.43,9.43,0,0,1-4.494-7.805c0-5.44,4.967-9.934,11.353-9.934,5.913,0,10.88,4.021,11.353,9.224-5.913,0-10.643,4.258-10.643,9.461a2.57,2.57,0,0,0,.237,1.182Zm17.739,5.2c-.473.236-.473.473-.473.709l.473,2.129a10.534,10.534,0,0,1-1.892-1.182,3.514,3.514,0,0,0-1.656,0,11.883,11.883,0,0,1-2.839.473c-5.44,0-9.7-3.784-9.7-8.515s4.257-8.515,9.7-8.515c5.2,0,9.461,3.784,9.461,8.515A8.7,8.7,0,0,1,1597.165,1080.617Z" transform="translate(-1556.294 -1041.213)"/><path class="b" d="M1666.689,1130.136a1.183,1.183,0,1,0,0,2.365,1.183,1.183,0,1,0,0-2.365Z" transform="translate(-1629.603 -1100.902)"/></svg>