<svg xmlns="http://www.w3.org/2000/svg" width="55.725" height="55.725" viewBox="0 0 55.725 55.725"><defs><style>.a{fill:#9f9f9f;fill-rule:evenodd;}</style></defs><path class="a" d="M140.194,1115.177a4.741,4.741,0,0,0-1.719,3.412,3.816,3.816,0,0,0,1.343,2.794,2.16,2.16,0,0,0,2.955-1.827,22.058,22.058,0,0,0-.457-2.82C141.779,1114.452,141.591,1114.318,140.194,1115.177Z" transform="translate(-112.436 -1090.534)"/><path class="a" d="M87.132,1041.213a27.863,27.863,0,1,0,27.863,27.863A27.862,27.862,0,0,0,87.132,1041.213Zm11.259,34.744a11.5,11.5,0,0,1-6.635,6.42,14.253,14.253,0,0,1-6.742.43c-8.086-1.88-12.222-12.115-7.9-19.5,1.424-2.444,5.292-5.748,6.716-5.748a1.686,1.686,0,0,1,1.047.51c.86.94.43,1.639-1.88,3.277-3.277,2.337-4.7,4.969-4.7,8.677a10.015,10.015,0,0,0,3.385,7.656,7.733,7.733,0,0,0,5.91,2.31,7.923,7.923,0,0,0,7.683-4.567c.806-1.638.833-1.854.725-4.137-.108-2.068-.215-2.579-.913-3.68-.752-1.209-3.062-2.874-3.465-2.5a7.334,7.334,0,0,0,.4,2.283,19.177,19.177,0,0,1,.537,2.633,5.475,5.475,0,0,1-3.734,5c-3.465.94-6.286-1.719-6.286-5.937a6.588,6.588,0,0,1,4.137-6.34l.967-.43-.107-2.31c-.134-2.095-.081-2.391.457-3.089a4.53,4.53,0,0,1,5.292-1.451c1.1.457,2.23,1.585,2.23,2.2s-.725,1.5-1.236,1.5a4.892,4.892,0,0,1-1.424-.564c-1.316-.671-1.907-.591-2.418.323a1.886,1.886,0,0,0-.081,1.8c.3.994.43,1.1,1.612,1.4a8.552,8.552,0,0,1,6.286,5.614A15.255,15.255,0,0,1,98.39,1075.957Z" transform="translate(-59.269 -1041.213)"/></svg>