<svg xmlns="http://www.w3.org/2000/svg" width="55.725" height="55.725" viewBox="0 0 55.725 55.725"><defs><style>.a{fill:#9f9f9f;fill-rule:evenodd;}</style></defs><path class="a" d="M835.644,1041.213a27.863,27.863,0,1,0,27.863,27.863A27.863,27.863,0,0,0,835.644,1041.213Zm12.2,21.6q.02.405.019.815c0,8.322-6.335,17.919-17.919,17.919a17.824,17.824,0,0,1-9.654-2.831,12.685,12.685,0,0,0,9.324-2.607,6.306,6.306,0,0,1-5.882-4.373,6.4,6.4,0,0,0,1.185.111,6.263,6.263,0,0,0,1.659-.221,6.3,6.3,0,0,1-5.052-6.175v-.079a6.273,6.273,0,0,0,2.853.787,6.3,6.3,0,0,1-1.949-8.408,17.883,17.883,0,0,0,12.981,6.58,6.365,6.365,0,0,1-.162-1.436,6.3,6.3,0,0,1,10.894-4.31,12.581,12.581,0,0,0,4-1.529,6.317,6.317,0,0,1-2.769,3.485,12.589,12.589,0,0,0,3.617-.992A12.839,12.839,0,0,1,847.847,1062.817Z" transform="translate(-807.781 -1041.213)"/></svg>